<?xml version="1.0" encoding="UTF-8" standalone="no"?>
<svg
   width="16"
   height="16"
   fill="currentColor"
   class="bi bi-graph-up"
   viewBox="0 0 16 16"
   version="1.1"
   id="svg1"
   sodipodi:docname="graph-combined.svg"
   inkscape:version="1.4.2 (f4327f4, 2025-05-13)"
   xmlns:inkscape="http://www.inkscape.org/namespaces/inkscape"
   xmlns:sodipodi="http://sodipodi.sourceforge.net/DTD/sodipodi-0.dtd"
   xmlns="http://www.w3.org/2000/svg"
   xmlns:svg="http://www.w3.org/2000/svg">
  <defs
     id="defs1" />
  <sodipodi:namedview
     id="namedview1"
     pagecolor="#ffffff"
     bordercolor="#000000"
     borderopacity="0.25"
     inkscape:showpageshadow="2"
     inkscape:pageopacity="0.0"
     inkscape:pagecheckerboard="0"
     inkscape:deskcolor="#d1d1d1"
     inkscape:zoom="45.254834"
     inkscape:cx="3.2151261"
     inkscape:cy="6.22033"
     inkscape:window-width="2560"
     inkscape:window-height="1369"
     inkscape:window-x="2552"
     inkscape:window-y="-8"
     inkscape:window-maximized="1"
     inkscape:current-layer="layer2" />
  <path
     fill-rule="evenodd"
     d="M 0.53033008,0.75130095 H 0.92818447 V 6.7191166 H 6.8960002 V 7.116971 H 0.53033008 Z M 6.4253385,1.9898216 a 0.19892719,0.19892719 0 0 1 0.02785,0.2800895 L 4.6628436,4.4581101 A 0.19892719,0.19892719 0 0 1 4.3684313,4.4728308 L 3.339182,3.4435815 1.8846264,5.4435955 A 0.19892719,0.19892719 0 0 1 1.56316,5.2096571 L 3.1545776,3.021458 A 0.19892719,0.19892719 0 0 1 3.4561512,2.997587 l 1.0380022,1.0384 1.6510956,-2.0183153 a 0.19892719,0.19892719 0 0 1 0.2800895,-0.02785"
     id="path1"
     style="stroke-width:0.397855" />
  <g
     inkscape:groupmode="layer"
     id="layer1"
     inkscape:label="Layer 1">
    <path
       d="M 10.50977,5.1887213 H 9.639878 V 6.493559 H 10.50977 Z M 12.6845,3.4489375 H 11.814608 V 6.493559 H 12.6845 Z M 14.859229,1.274208 V 6.493559 H 13.989337 V 1.274208 Z M 13.989337,0.83926203 A 0.43494592,0.43494592 0 0 0 13.554391,1.274208 v 5.219351 a 0.43494592,0.43494592 0 0 0 0.434946,0.4349459 h 0.869892 A 0.43494592,0.43494592 0 0 0 15.294175,6.493559 V 1.274208 A 0.43494592,0.43494592 0 0 0 14.859229,0.83926203 Z M 11.379661,3.4489375 A 0.43494592,0.43494592 0 0 1 11.814608,3.0139917 H 12.6845 a 0.43494592,0.43494592 0 0 1 0.434945,0.4349458 V 6.493559 A 0.43494592,0.43494592 0 0 1 12.6845,6.9285049 H 11.814608 A 0.43494592,0.43494592 0 0 1 11.379661,6.493559 Z M 9.2049321,5.1887213 A 0.43494592,0.43494592 0 0 1 9.639878,4.7537753 h 0.869892 a 0.43494592,0.43494592 0 0 1 0.434946,0.434946 V 6.493559 A 0.43494592,0.43494592 0 0 1 10.50977,6.9285049 H 9.639878 A 0.43494592,0.43494592 0 0 1 9.2049321,6.493559 Z"
       id="path1-8"
       style="stroke-width:0.434946" />
  </g>
  <g
     inkscape:groupmode="layer"
     id="layer2"
     inkscape:label="Layer 2">
    <path
       d="M 3.5064435,9.0037634 A 2.7753132,2.7753132 0 0 0 1.6073364,13.589375 L 3.5064435,11.68987 Z m 0.3964734,0 V 11.573704 H 6.4728567 A 2.7753132,2.7753132 0 0 0 3.9029169,9.0037634 M 6.4728567,11.970177 H 3.7867501 L 1.887643,13.869285 A 2.7753132,2.7753132 0 0 0 6.4728567,11.970177 M 0.53289367,11.771941 a 3.1717865,3.1717865 0 1 1 6.34357303,0 3.1717865,3.1717865 0 0 1 -6.34357303,0"
       id="path1-5"
       style="stroke-width:0.396473" />
  </g>
  <g
     inkscape:groupmode="layer"
     id="layer3"
     inkscape:label="Layer 3">
    <path
       d="m 10.529861,12.647598 a 0.4049575,0.4049575 0 1 1 0.809915,0 v 0.404957 a 0.4049575,0.4049575 0 1 1 -0.809915,0 z m 2.429743,-1.619829 a 0.40495702,0.40495702 0 1 1 0.809913,0 v 2.024786 a 0.40495702,0.40495702 0 1 1 -0.809913,0 z m -1.214872,0.809915 a 0.40495702,0.40495702 0 0 1 0.809914,0 v 1.214871 a 0.40495702,0.40495702 0 1 1 -0.809914,0 z"
       id="path1-1"
       style="stroke-width:0.404957" />
    <path
       d="M 10.529861,8.8005062 H 10.124904 A 0.80991404,0.80991404 0 0 0 9.3149904,9.6104203 v 4.2520477 a 0.80991404,0.80991404 0 0 0 0.8099136,0.809915 h 4.04957 a 0.80991404,0.80991404 0 0 0 0.809914,-0.809915 V 9.6104203 A 0.80991404,0.80991404 0 0 0 14.174474,8.8005062 h -0.404957 v 0.4049571 h 0.404957 a 0.40495702,0.40495702 0 0 1 0.404958,0.404957 v 4.2520477 a 0.40495702,0.40495702 0 0 1 -0.404958,0.404958 h -4.04957 A 0.40495702,0.40495702 0 0 1 9.7199474,13.862468 V 9.6104203 a 0.40495702,0.40495702 0 0 1 0.4049566,-0.404957 h 0.404957 z"
       id="path2"
       style="stroke-width:0.404957" />
    <path
       d="m 12.757124,8.5980277 a 0.20247851,0.20247851 0 0 1 0.20248,0.2024785 v 0.4049571 a 0.20247851,0.20247851 0 0 1 -0.20248,0.2024784 h -1.21487 A 0.20247851,0.20247851 0 0 1 11.339776,9.2054633 V 8.8005062 a 0.20247851,0.20247851 0 0 1 0.202478,-0.2024785 z m -1.21487,-0.404957 a 0.60743553,0.60743553 0 0 0 -0.607436,0.6074355 v 0.4049571 a 0.60743553,0.60743553 0 0 0 0.607436,0.6074361 h 1.21487 A 0.60743553,0.60743553 0 0 0 13.36456,9.2054633 V 8.8005062 A 0.60743553,0.60743553 0 0 0 12.757124,8.1930707 Z"
       id="path3"
       style="stroke-width:0.404957" />
    <path
       d="m 10.529861,12.647598 a 0.4049575,0.4049575 0 1 1 0.809915,0 v 0.404957 a 0.4049575,0.4049575 0 1 1 -0.809915,0 z m 2.429743,-1.619829 a 0.40495702,0.40495702 0 1 1 0.809913,0 v 2.024786 a 0.40495702,0.40495702 0 1 1 -0.809913,0 z m -1.214872,0.809915 a 0.40495702,0.40495702 0 0 1 0.809914,0 v 1.214871 a 0.40495702,0.40495702 0 1 1 -0.809914,0 z"
       id="path4"
       style="stroke-width:0.404957" />
    <path
       d="M 10.529861,8.8005062 H 10.124904 A 0.80991404,0.80991404 0 0 0 9.3149904,9.6104203 v 4.2520477 a 0.80991404,0.80991404 0 0 0 0.8099136,0.809915 h 4.04957 a 0.80991404,0.80991404 0 0 0 0.809914,-0.809915 V 9.6104203 A 0.80991404,0.80991404 0 0 0 14.174474,8.8005062 h -0.404957 v 0.4049571 h 0.404957 a 0.40495702,0.40495702 0 0 1 0.404958,0.404957 v 4.2520477 a 0.40495702,0.40495702 0 0 1 -0.404958,0.404958 h -4.04957 A 0.40495702,0.40495702 0 0 1 9.7199474,13.862468 V 9.6104203 a 0.40495702,0.40495702 0 0 1 0.4049566,-0.404957 h 0.404957 z"
       id="path5"
       style="stroke-width:0.404957" />
    <path
       d="m 12.757124,8.5980277 a 0.20247851,0.20247851 0 0 1 0.20248,0.2024785 v 0.4049571 a 0.20247851,0.20247851 0 0 1 -0.20248,0.2024784 h -1.21487 A 0.20247851,0.20247851 0 0 1 11.339776,9.2054633 V 8.8005062 a 0.20247851,0.20247851 0 0 1 0.202478,-0.2024785 z m -1.21487,-0.404957 a 0.60743553,0.60743553 0 0 0 -0.607436,0.6074355 v 0.4049571 a 0.60743553,0.60743553 0 0 0 0.607436,0.6074361 h 1.21487 A 0.60743553,0.60743553 0 0 0 13.36456,9.2054633 V 8.8005062 A 0.60743553,0.60743553 0 0 0 12.757124,8.1930707 Z"
       id="path6"
       style="stroke-width:0.404957" />
  </g>
  <path
     fill-rule="evenodd"
     d="M 0.53033008,0.75130095 H 0.92818447 V 6.7191166 H 6.8960002 V 7.116971 H 0.53033008 Z M 6.4253385,1.9898216 a 0.19892719,0.19892719 0 0 1 0.02785,0.2800895 L 4.6628436,4.4581101 A 0.19892719,0.19892719 0 0 1 4.3684313,4.4728308 L 3.339182,3.4435815 1.8846264,5.4435955 A 0.19892719,0.19892719 0 0 1 1.56316,5.2096571 L 3.1545776,3.021458 A 0.19892719,0.19892719 0 0 1 3.4561512,2.997587 l 1.0380022,1.0384 1.6510956,-2.0183153 a 0.19892719,0.19892719 0 0 1 0.2800895,-0.02785"
     id="path7"
     style="stroke-width:0.397855" />
</svg>
